<svg xmlns="http://www.w3.org/2000/svg" viewBox="0 0 24 22.84"><path class="cls-1" d="M12,0C5.41,0,0,4.36,0,9.72c0,4.81,4.26,8.84,10,9.6.38.09.92.25,1.05.59a2.46,2.46,0,0,1,0,1.08L11,22c0,.3-.24,1.19,1,.64a39,39,0,0,0,9.42-6.95,8.77,8.77,0,0,0,2.58-6h0C24,4.36,18.62,0,12,0ZM7.75,12.58a.23.23,0,0,1-.07.17.23.23,0,0,1-.16.06H4.16A.23.23,0,0,1,4,12.75a.25.25,0,0,1-.06-.16V7.37A.27.27,0,0,1,4,7.2a.28.28,0,0,1,.17-.07H5a.24.24,0,0,1,.16.07.28.28,0,0,1,.07.17v4.14H7.52a.21.21,0,0,1,.16.08.2.2,0,0,1,.07.16Zm2,0a.24.24,0,0,1-.07.16.22.22,0,0,1-.17.07H8.71a.23.23,0,0,1-.17-.07.23.23,0,0,1-.06-.16V7.38a.27.27,0,0,1,.06-.17.28.28,0,0,1,.17-.07h.84a.24.24,0,0,1,.17.07.28.28,0,0,1,.07.17Zm5.78.06a.24.24,0,0,1-.06.17.28.28,0,0,1-.17.07h-1l-.06-.06-2.4-3.23v3.11a.19.19,0,0,1,0,.08.22.22,0,0,1-.05.08l-.07,0-.09,0h-.84a.28.28,0,0,1-.17-.07.24.24,0,0,1-.07-.16V7.5a.24.24,0,0,1,.07-.17.28.28,0,0,1,.17-.07h1l2.39,3.22V7.38a.28.28,0,0,1,.07-.17.26.26,0,0,1,.17-.07h.84v.07a.22.22,0,0,1,.23.24ZM20.21,8.2a.24.24,0,0,1-.23.23H17.69V9.3H20l.09,0,.08,0a.22.22,0,0,1,.05.08.24.24,0,0,1,0,.09v.83a.24.24,0,0,1-.07.17.21.21,0,0,1-.17.07H17.69v.89H20a.25.25,0,0,1,.17.06.28.28,0,0,1,.07.17v.84a.24.24,0,0,1-.07.16.22.22,0,0,1-.17.07H16.61a.2.2,0,0,1-.15-.06.28.28,0,0,1-.07-.17V7.35a.26.26,0,0,1,.07-.16.24.24,0,0,1,.16-.07H20a.28.28,0,0,1,.17.07.27.27,0,0,1,.06.17Z"/></svg>
