<svg xmlns="http://www.w3.org/2000/svg" viewBox="0 0 88 27"><defs><linearGradient id="a" x1="5.25" y1="23.29" x2="21.98" y2="3.43" gradientUnits="userSpaceOnUse"><stop offset="0" stop-color="#3cf"/><stop offset=".45" stop-color="#67cc9d"/><stop offset=".83" stop-color="#8fcc51"/><stop offset="1" stop-color="#9fcc33"/></linearGradient></defs><g data-name="Layer 2"><circle cx="13.5" cy="13.5" r="6.97" fill="#fff"/><path d="M13.93 27a4.18 4.18 0 01-3.79-2.43.78.78 0 00-.47-.44 1 1 0 00-.29-.05.9.9 0 00-.36.08 4.2 4.2 0 01-1.81.41 4.13 4.13 0 01-2.95-1.22 4.19 4.19 0 01-1-4.4.84.84 0 00-.51-1.08 4.17 4.17 0 01-.36-7.73.78.78 0 00.44-.47.81.81 0 000-.65 4.18 4.18 0 01.81-4.76A4.13 4.13 0 016.6 3a4.18 4.18 0 011.45.26.86.86 0 00.65 0 .82.82 0 00.43-.48 4.17 4.17 0 017.73-.36.78.78 0 00.47.44 1 1 0 00.29 0 .9.9 0 00.38-.02 4.2 4.2 0 011.81-.41A4.17 4.17 0 0124 6.6a4.18 4.18 0 01-.26 1.45.84.84 0 00.51 1.08 4.17 4.17 0 01.36 7.73.78.78 0 00-.44.47.81.81 0 000 .65 4.18 4.18 0 01-.81 4.76 4.13 4.13 0 01-3 1.22A4.18 4.18 0 0119 23.7a.86.86 0 00-.65 0 .82.82 0 00-.43.48A4.18 4.18 0 0113.93 27zM11.32 8a.94.94 0 00-.32.1.83.83 0 00-.43.49A4.26 4.26 0 018.33 11a.85.85 0 00-.41 1.13 4 4 0 01.42 1.8 4.18 4.18 0 01-.26 1.45.86.86 0 000 .65.85.85 0 00.49.44 4 4 0 011.56 1 4.08 4.08 0 01.87 1.2.83.83 0 00.48.44.87.87 0 00.28.05 1 1 0 00.37-.08 4 4 0 011.8-.42 4.28 4.28 0 011.46.26.72.72 0 00.29.06.94.94 0 00.32-.08.83.83 0 00.43-.49A4.26 4.26 0 0118.67 16a.85.85 0 00.41-1.13 4 4 0 01-.42-1.8 4.18 4.18 0 01.26-1.45.86.86 0 000-.65.85.85 0 00-.49-.44 4 4 0 01-1.56-1 4.08 4.08 0 01-.87-1.2.87.87 0 00-.48-.44.92.92 0 00-.28 0 1 1 0 00-.37.08 4 4 0 01-1.8.42 4.28 4.28 0 01-1.46-.26.72.72 0 00-.29-.13z" fill="#9cc"/><path d="M13.93 27a4.18 4.18 0 01-3.79-2.43.78.78 0 00-.47-.44 1 1 0 00-.29-.05.9.9 0 00-.36.08 4.2 4.2 0 01-1.81.41 4.13 4.13 0 01-2.95-1.22 4.19 4.19 0 01-1-4.4.84.84 0 00-.51-1.08 4.17 4.17 0 01-.36-7.73.78.78 0 00.44-.47.81.81 0 000-.65 4.18 4.18 0 01.81-4.76A4.13 4.13 0 016.6 3a4.18 4.18 0 011.45.26.86.86 0 00.65 0 .82.82 0 00.43-.48 4.17 4.17 0 017.73-.36.78.78 0 00.47.44 1 1 0 00.29 0 .9.9 0 00.38-.02 4.2 4.2 0 011.81-.41A4.17 4.17 0 0124 6.6a4.18 4.18 0 01-.26 1.45.84.84 0 00.51 1.08 4.17 4.17 0 01.36 7.73.78.78 0 00-.44.47.81.81 0 000 .65 4.18 4.18 0 01-.81 4.76 4.13 4.13 0 01-3 1.22A4.18 4.18 0 0119 23.7a.86.86 0 00-.65 0 .82.82 0 00-.43.48A4.18 4.18 0 0113.93 27zM11.32 8a.94.94 0 00-.32.1.83.83 0 00-.43.49A4.26 4.26 0 018.33 11a.85.85 0 00-.41 1.13 4 4 0 01.42 1.8 4.18 4.18 0 01-.26 1.45.86.86 0 000 .65.85.85 0 00.49.44 4 4 0 011.56 1 4.08 4.08 0 01.87 1.2.83.83 0 00.48.44.87.87 0 00.28.05 1 1 0 00.37-.08 4 4 0 011.8-.42 4.28 4.28 0 011.46.26.72.72 0 00.29.06.94.94 0 00.32-.08.83.83 0 00.43-.49A4.26 4.26 0 0118.67 16a.85.85 0 00.41-1.13 4 4 0 01-.42-1.8 4.18 4.18 0 01.26-1.45.86.86 0 000-.65.85.85 0 00-.49-.44 4 4 0 01-1.56-1 4.08 4.08 0 01-.87-1.2.87.87 0 00-.48-.44.92.92 0 00-.28 0 1 1 0 00-.37.08 4 4 0 01-1.8.42 4.28 4.28 0 01-1.46-.26.72.72 0 00-.29-.13z" fill="url(#a)"/><path d="M5.88 10.75a2.09 2.09 0 011.57-.59 2.21 2.21 0 011 .23.7.7 0 01.43.59.43.43 0 01-.14.34.49.49 0 01-.34.12 1.12 1.12 0 01-.4-.13 1.54 1.54 0 00-.58-.12.9.9 0 00-.73.3 1.11 1.11 0 00-.25.76 1.15 1.15 0 00.25.77.93.93 0 00.73.29 1.54 1.54 0 00.58-.12 1.12 1.12 0 01.45-.13.49.49 0 01.34.12.45.45 0 01.14.35.69.69 0 01-.43.58 2.09 2.09 0 01-1 .23 2.05 2.05 0 01-1.57-.59 2.09 2.09 0 01-.57-1.5 2.09 2.09 0 01.52-1.5zm5.99.77a1.41 1.41 0 01.3 1v1.31a.5.5 0 11-1 0v-1.22a.52.52 0 00-.12-.36.44.44 0 00-.64 0 .52.52 0 00-.12.36v1.17a.53.53 0 01-.14.37.52.52 0 01-.36.14.51.51 0 01-.37-.14.53.53 0 01-.14-.37v-3.35a.49.49 0 01.14-.36.45.45 0 01.36-.14.48.48 0 01.51.5v1.05a1 1 0 01.77-.31 1 1 0 01.81.35zm3.78-.15a.49.49 0 01.14.37v2a.48.48 0 01-.5.51.46.46 0 01-.46-.27 1.07 1.07 0 01-.81.33 1.36 1.36 0 01-1-.44 1.63 1.63 0 01-.41-1.15 1.64 1.64 0 01.4-1.14 1.31 1.31 0 011-.45 1.09 1.09 0 01.82.31.48.48 0 01.45-.25.49.49 0 01.37.18zm-1 1.85a.65.65 0 00.17-.46.69.69 0 00-.17-.46.55.55 0 00-.42-.19.59.59 0 00-.42.19.68.68 0 00-.16.46.65.65 0 00.16.46.55.55 0 00.42.19.52.52 0 00.38-.19zM17.28 10a.56.56 0 010 .8.57.57 0 01-.8-.8.54.54 0 01.4-.17.56.56 0 01.4.17zm0 4.12a.53.53 0 01-.72 0 .53.53 0 01-.14-.37v-2a.53.53 0 01.14-.37.5.5 0 01.86.37v2a.49.49 0 01-.18.4zm3.28-2.6a1.41 1.41 0 01.3 1v1.31a.53.53 0 01-.14.37.49.49 0 01-.36.14.48.48 0 01-.51-.51v-1.22a.52.52 0 00-.12-.36.38.38 0 00-.31-.14.44.44 0 00-.33.14.52.52 0 00-.12.36v1.17a.5.5 0 11-1 0v-2a.48.48 0 01.5-.51.46.46 0 01.47.3.92.92 0 01.81-.36 1 1 0 01.81.31zm-7.08 5.78a4.43 4.43 0 01-3.22-1.38.49.49 0 01.74-.63 3.42 3.42 0 002.48 1 2.84 2.84 0 002.35-1 .48.48 0 01.67-.13.49.49 0 01.14.68 3.81 3.81 0 01-3.16 1.46zm22.07-8.75a7.27 7.27 0 015.51-2.07 7.42 7.42 0 013.58.82 2.38 2.38 0 011.52 2 1.52 1.52 0 01-.48 1.21 1.85 1.85 0 01-1.21.41 4.17 4.17 0 01-1.58-.44 5.09 5.09 0 00-2-.43 3.17 3.17 0 00-2.57 1 4 4 0 00-.88 2.68 4 4 0 00.88 2.68 3.2 3.2 0 002.57 1 5.09 5.09 0 002-.43 4.37 4.37 0 011.58-.44 1.8 1.8 0 011.21.42 1.48 1.48 0 01.48 1.2 2.37 2.37 0 01-1.52 2 7.42 7.42 0 01-3.58.83 7.27 7.27 0 01-5.51-2.08 7.29 7.29 0 01-2-5.25 7.3 7.3 0 012-5.11zm20.99 2.68a5 5 0 011.05 3.34v4.6a1.74 1.74 0 01-.5 1.28 1.7 1.7 0 01-1.25.49 1.7 1.7 0 01-1.78-1.77v-4.12a1.84 1.84 0 00-.41-1.26 1.43 1.43 0 00-1.12-.47 1.45 1.45 0 00-1.12.47 1.8 1.8 0 00-.41 1.26v4.12a1.77 1.77 0 01-.49 1.28 1.76 1.76 0 01-3-1.28V7.44a1.8 1.8 0 013-1.28A1.76 1.76 0 0151 7.44v3.65A3.55 3.55 0 0153.69 10a3.6 3.6 0 012.85 1.23zm13.23-.5a1.77 1.77 0 01.49 1.27v7.16a1.68 1.68 0 01-1.77 1.77 1.61 1.61 0 01-1.6-.94A3.75 3.75 0 0164 21.16a4.65 4.65 0 01-3.51-1.55 5.58 5.58 0 01-1.45-4 5.77 5.77 0 011.41-4A4.54 4.54 0 0164 10a3.79 3.79 0 012.87 1.09 1.67 1.67 0 011.58-.87 1.73 1.73 0 011.32.51zm-3.65 6.48a2.27 2.27 0 00.59-1.61 2.31 2.31 0 00-.59-1.6 2 2 0 00-2.93 0 2.36 2.36 0 00-.59 1.62 2.32 2.32 0 00.59 1.61 2 2 0 002.93 0zM75.46 6a2 2 0 010 2.8 2 2 0 01-1.41.58 1.92 1.92 0 01-1.39-.57 1.88 1.88 0 01-.58-1.4 2 2 0 012-2 1.91 1.91 0 011.38.59zm-.12 14.42a1.74 1.74 0 01-1.26.49 1.77 1.77 0 01-1.28-.49 1.73 1.73 0 01-.49-1.28V12a1.73 1.73 0 01.49-1.28 1.89 1.89 0 012.54 0 1.73 1.73 0 01.49 1.28v7.16a1.73 1.73 0 01-.49 1.29zM87 11.23a5 5 0 011 3.34v4.6a1.68 1.68 0 01-1.75 1.77 1.76 1.76 0 01-1.25-.49 1.73 1.73 0 01-.49-1.28v-4.12a1.84 1.84 0 00-.42-1.26 1.43 1.43 0 00-1.09-.47 1.46 1.46 0 00-1.13.47 1.8 1.8 0 00-.43 1.26v4.12a1.68 1.68 0 01-1.75 1.77 1.77 1.77 0 01-1.28-.49 1.73 1.73 0 01-.49-1.28V12a1.73 1.73 0 01.49-1.28 1.7 1.7 0 011.26-.49 1.6 1.6 0 011.64 1 3.35 3.35 0 012.8-1.23A3.59 3.59 0 0187 11.23z"/></g></svg>