<svg xmlns="http://www.w3.org/2000/svg" xmlns:xlink="http://www.w3.org/1999/xlink" viewBox="0 0 88 27"><defs><style>.cls-1{fill:#fff;}.cls-2{fill:#9cc;}.cls-3{fill:url(#名称未設定グラデーション_79);}</style><linearGradient id="名称未設定グラデーション_79" x1="5.25" y1="23.29" x2="21.98" y2="3.43" gradientUnits="userSpaceOnUse"><stop offset="0" stop-color="#3cf"/><stop offset="0.45" stop-color="#67cc9d"/><stop offset="0.83" stop-color="#8fcc51"/><stop offset="1" stop-color="#9fcc33"/></linearGradient></defs><g id="Layer_2" data-name="Layer 2"><g id="obj"><circle class="cls-1" cx="13.5" cy="13.5" r="6.97"/><path class="cls-2" d="M13.93,27a4.18,4.18,0,0,1-3.79-2.43.78.78,0,0,0-.47-.44,1,1,0,0,0-.29-.05.9.9,0,0,0-.36.08,4.2,4.2,0,0,1-1.81.41,4.13,4.13,0,0,1-2.95-1.22,4.19,4.19,0,0,1-1-4.4.84.84,0,0,0-.51-1.08,4.17,4.17,0,0,1-.36-7.73.78.78,0,0,0,.44-.47.81.81,0,0,0,0-.65,4.18,4.18,0,0,1,.81-4.76A4.13,4.13,0,0,1,6.6,3a4.18,4.18,0,0,1,1.45.26.86.86,0,0,0,.65,0,.82.82,0,0,0,.43-.48,4.17,4.17,0,0,1,7.73-.36.78.78,0,0,0,.47.44,1,1,0,0,0,.29,0A.9.9,0,0,0,18,2.84a4.2,4.2,0,0,1,1.81-.41A4.17,4.17,0,0,1,24,6.6a4.18,4.18,0,0,1-.26,1.45.84.84,0,0,0,.51,1.08,4.17,4.17,0,0,1,.36,7.73.78.78,0,0,0-.44.47.81.81,0,0,0,0,.65,4.18,4.18,0,0,1-.81,4.76,4.13,4.13,0,0,1-3,1.22A4.18,4.18,0,0,1,19,23.7a.86.86,0,0,0-.65,0,.82.82,0,0,0-.43.48A4.18,4.18,0,0,1,13.93,27ZM11.32,8A.94.94,0,0,0,11,8.1a.83.83,0,0,0-.43.49A4.26,4.26,0,0,1,8.33,11a.85.85,0,0,0-.41,1.13,4,4,0,0,1,.42,1.8,4.18,4.18,0,0,1-.26,1.45.86.86,0,0,0,0,.65.85.85,0,0,0,.49.44,4,4,0,0,1,1.56,1A4.08,4.08,0,0,1,11,18.67a.83.83,0,0,0,.48.44.87.87,0,0,0,.28.05,1,1,0,0,0,.37-.08,4,4,0,0,1,1.8-.42,4.28,4.28,0,0,1,1.46.26.72.72,0,0,0,.29.06A.94.94,0,0,0,16,18.9a.83.83,0,0,0,.43-.49A4.26,4.26,0,0,1,18.67,16a.85.85,0,0,0,.41-1.13,4,4,0,0,1-.42-1.8,4.18,4.18,0,0,1,.26-1.45.86.86,0,0,0,0-.65.85.85,0,0,0-.49-.44,4,4,0,0,1-1.56-1A4.08,4.08,0,0,1,16,8.33a.87.87,0,0,0-.48-.44.92.92,0,0,0-.28,0,1,1,0,0,0-.37.08,4,4,0,0,1-1.8.42,4.28,4.28,0,0,1-1.46-.26A.72.72,0,0,0,11.32,8Z"/><path class="cls-3" d="M13.93,27a4.18,4.18,0,0,1-3.79-2.43.78.78,0,0,0-.47-.44,1,1,0,0,0-.29-.05.9.9,0,0,0-.36.08,4.2,4.2,0,0,1-1.81.41,4.13,4.13,0,0,1-2.95-1.22,4.19,4.19,0,0,1-1-4.4.84.84,0,0,0-.51-1.08,4.17,4.17,0,0,1-.36-7.73.78.78,0,0,0,.44-.47.81.81,0,0,0,0-.65,4.18,4.18,0,0,1,.81-4.76A4.13,4.13,0,0,1,6.6,3a4.18,4.18,0,0,1,1.45.26.86.86,0,0,0,.65,0,.82.82,0,0,0,.43-.48,4.17,4.17,0,0,1,7.73-.36.78.78,0,0,0,.47.44,1,1,0,0,0,.29,0A.9.9,0,0,0,18,2.84a4.2,4.2,0,0,1,1.81-.41A4.17,4.17,0,0,1,24,6.6a4.18,4.18,0,0,1-.26,1.45.84.84,0,0,0,.51,1.08,4.17,4.17,0,0,1,.36,7.73.78.78,0,0,0-.44.47.81.81,0,0,0,0,.65,4.18,4.18,0,0,1-.81,4.76,4.13,4.13,0,0,1-3,1.22A4.18,4.18,0,0,1,19,23.7a.86.86,0,0,0-.65,0,.82.82,0,0,0-.43.48A4.18,4.18,0,0,1,13.93,27ZM11.32,8A.94.94,0,0,0,11,8.1a.83.83,0,0,0-.43.49A4.26,4.26,0,0,1,8.33,11a.85.85,0,0,0-.41,1.13,4,4,0,0,1,.42,1.8,4.18,4.18,0,0,1-.26,1.45.86.86,0,0,0,0,.65.85.85,0,0,0,.49.44,4,4,0,0,1,1.56,1A4.08,4.08,0,0,1,11,18.67a.83.83,0,0,0,.48.44.87.87,0,0,0,.28.05,1,1,0,0,0,.37-.08,4,4,0,0,1,1.8-.42,4.28,4.28,0,0,1,1.46.26.72.72,0,0,0,.29.06A.94.94,0,0,0,16,18.9a.83.83,0,0,0,.43-.49A4.26,4.26,0,0,1,18.67,16a.85.85,0,0,0,.41-1.13,4,4,0,0,1-.42-1.8,4.18,4.18,0,0,1,.26-1.45.86.86,0,0,0,0-.65.85.85,0,0,0-.49-.44,4,4,0,0,1-1.56-1A4.08,4.08,0,0,1,16,8.33a.87.87,0,0,0-.48-.44.92.92,0,0,0-.28,0,1,1,0,0,0-.37.08,4,4,0,0,1-1.8.42,4.28,4.28,0,0,1-1.46-.26A.72.72,0,0,0,11.32,8Z"/><path d="M5.88,10.75a2.09,2.09,0,0,1,1.57-.59,2.21,2.21,0,0,1,1,.23.7.7,0,0,1,.43.59.43.43,0,0,1-.14.34.49.49,0,0,1-.34.12A1.12,1.12,0,0,1,8,11.31a1.54,1.54,0,0,0-.58-.12.9.9,0,0,0-.73.3,1.11,1.11,0,0,0-.25.76,1.15,1.15,0,0,0,.25.77.93.93,0,0,0,.73.29A1.54,1.54,0,0,0,8,13.19a1.12,1.12,0,0,1,.45-.13.49.49,0,0,1,.34.12.45.45,0,0,1,.14.35.69.69,0,0,1-.43.58,2.09,2.09,0,0,1-1,.23,2.05,2.05,0,0,1-1.57-.59,2.09,2.09,0,0,1-.57-1.5A2.09,2.09,0,0,1,5.88,10.75Z"/><path d="M11.87,11.52a1.41,1.41,0,0,1,.3,1v1.31a.5.5,0,1,1-1,0V12.61a.52.52,0,0,0-.12-.36.44.44,0,0,0-.64,0,.52.52,0,0,0-.12.36v1.17a.53.53,0,0,1-.14.37.52.52,0,0,1-.36.14.51.51,0,0,1-.37-.14.53.53,0,0,1-.14-.37V10.43a.49.49,0,0,1,.14-.36.45.45,0,0,1,.36-.14.48.48,0,0,1,.51.5v1.05a1,1,0,0,1,.77-.31A1,1,0,0,1,11.87,11.52Z"/><path d="M15.65,11.37a.49.49,0,0,1,.14.37v2a.48.48,0,0,1-.5.51.46.46,0,0,1-.46-.27,1.07,1.07,0,0,1-.81.33,1.36,1.36,0,0,1-1-.44,1.63,1.63,0,0,1-.41-1.15,1.64,1.64,0,0,1,.4-1.14,1.31,1.31,0,0,1,1-.45,1.09,1.09,0,0,1,.82.31.48.48,0,0,1,.45-.25A.49.49,0,0,1,15.65,11.37Zm-1,1.85a.65.65,0,0,0,.17-.46.69.69,0,0,0-.17-.46.55.55,0,0,0-.42-.19.59.59,0,0,0-.42.19.68.68,0,0,0-.16.46.65.65,0,0,0,.16.46.55.55,0,0,0,.42.19A.52.52,0,0,0,14.61,13.22Z"/><path d="M17.28,10a.56.56,0,0,1,0,.8.57.57,0,0,1-.8-.8.54.54,0,0,1,.4-.17A.56.56,0,0,1,17.28,10Zm0,4.12a.53.53,0,0,1-.72,0,.53.53,0,0,1-.14-.37v-2a.53.53,0,0,1,.14-.37.5.5,0,0,1,.86.37v2A.49.49,0,0,1,17.24,14.15Z"/><path d="M20.56,11.52a1.41,1.41,0,0,1,.3,1v1.31a.53.53,0,0,1-.14.37.49.49,0,0,1-.36.14.48.48,0,0,1-.51-.51V12.61a.52.52,0,0,0-.12-.36.38.38,0,0,0-.31-.14.44.44,0,0,0-.33.14.52.52,0,0,0-.12.36v1.17a.5.5,0,1,1-1,0v-2a.48.48,0,0,1,.5-.51.46.46,0,0,1,.47.3.92.92,0,0,1,.81-.36A1,1,0,0,1,20.56,11.52Z"/><path d="M13.48,17.3a4.43,4.43,0,0,1-3.22-1.38.49.49,0,0,1,.74-.63,3.42,3.42,0,0,0,2.48,1,2.84,2.84,0,0,0,2.35-1,.48.48,0,0,1,.67-.13.49.49,0,0,1,.14.68A3.81,3.81,0,0,1,13.48,17.3Z"/><path d="M35.55,8.55a7.27,7.27,0,0,1,5.51-2.07,7.42,7.42,0,0,1,3.58.82,2.38,2.38,0,0,1,1.52,2,1.52,1.52,0,0,1-.48,1.21,1.85,1.85,0,0,1-1.21.41,4.17,4.17,0,0,1-1.58-.44,5.09,5.09,0,0,0-2-.43,3.17,3.17,0,0,0-2.57,1,4,4,0,0,0-.88,2.68,4,4,0,0,0,.88,2.68,3.2,3.2,0,0,0,2.57,1,5.09,5.09,0,0,0,2-.43,4.37,4.37,0,0,1,1.58-.44,1.8,1.8,0,0,1,1.21.42,1.48,1.48,0,0,1,.48,1.2,2.37,2.37,0,0,1-1.52,2,7.42,7.42,0,0,1-3.58.83,7.27,7.27,0,0,1-5.51-2.08,7.29,7.29,0,0,1-2-5.25A7.3,7.3,0,0,1,35.55,8.55Z"/><path d="M56.54,11.23a5,5,0,0,1,1.05,3.34v4.6a1.74,1.74,0,0,1-.5,1.28,1.7,1.7,0,0,1-1.25.49,1.7,1.7,0,0,1-1.78-1.77V15.05a1.84,1.84,0,0,0-.41-1.26,1.43,1.43,0,0,0-1.12-.47,1.45,1.45,0,0,0-1.12.47A1.8,1.8,0,0,0,51,15.05v4.12a1.77,1.77,0,0,1-.49,1.28,1.76,1.76,0,0,1-3-1.28V7.44a1.8,1.8,0,0,1,3-1.28A1.76,1.76,0,0,1,51,7.44v3.65A3.55,3.55,0,0,1,53.69,10,3.6,3.6,0,0,1,56.54,11.23Z"/><path d="M69.77,10.73A1.77,1.77,0,0,1,70.26,12v7.16a1.68,1.68,0,0,1-1.77,1.77,1.61,1.61,0,0,1-1.6-.94A3.75,3.75,0,0,1,64,21.16a4.65,4.65,0,0,1-3.51-1.55,5.58,5.58,0,0,1-1.45-4,5.77,5.77,0,0,1,1.41-4A4.54,4.54,0,0,1,64,10a3.79,3.79,0,0,1,2.87,1.09,1.67,1.67,0,0,1,1.58-.87A1.73,1.73,0,0,1,69.77,10.73Zm-3.65,6.48a2.27,2.27,0,0,0,.59-1.61A2.31,2.31,0,0,0,66.12,14a2,2,0,0,0-2.93,0,2.36,2.36,0,0,0-.59,1.62,2.32,2.32,0,0,0,.59,1.61,2,2,0,0,0,2.93,0Z"/><path d="M75.46,6a2,2,0,0,1,0,2.8,2,2,0,0,1-1.41.58,1.92,1.92,0,0,1-1.39-.57,1.88,1.88,0,0,1-.58-1.4,2,2,0,0,1,2-2A1.91,1.91,0,0,1,75.46,6Zm-.12,14.42a1.74,1.74,0,0,1-1.26.49,1.77,1.77,0,0,1-1.28-.49,1.73,1.73,0,0,1-.49-1.28V12a1.73,1.73,0,0,1,.49-1.28,1.89,1.89,0,0,1,2.54,0A1.73,1.73,0,0,1,75.83,12v7.16A1.73,1.73,0,0,1,75.34,20.45Z"/><path d="M87,11.23a5,5,0,0,1,1,3.34v4.6a1.68,1.68,0,0,1-1.75,1.77A1.76,1.76,0,0,1,85,20.45a1.73,1.73,0,0,1-.49-1.28V15.05a1.84,1.84,0,0,0-.42-1.26A1.43,1.43,0,0,0,83,13.32a1.46,1.46,0,0,0-1.13.47,1.8,1.8,0,0,0-.43,1.26v4.12a1.68,1.68,0,0,1-1.75,1.77,1.77,1.77,0,0,1-1.28-.49,1.73,1.73,0,0,1-.49-1.28V12a1.73,1.73,0,0,1,.49-1.28,1.7,1.7,0,0,1,1.26-.49,1.6,1.6,0,0,1,1.64,1A3.35,3.35,0,0,1,84.11,10,3.59,3.59,0,0,1,87,11.23Z"/></g></g></svg>